<svg xmlns="http://www.w3.org/2000/svg" width="123.47mm" height="23.16mm" viewBox="0 0 350 65.65"><defs><style>.cls-1{fill:#231815;}</style></defs><g id="レイヤー_2" data-name="レイヤー 2"><g id="レイヤー_1-2" data-name="レイヤー 1"><path class="cls-1" d="M11.26,48.72q-.76-2.37-2.06-6T6.4,34.85c-1-2.77-2.06-5.6-3.15-8.49S1.07,20.72,0,18.15c.51.09,1,.16,1.51.23A12.5,12.5,0,0,0,3,18.47a11.16,11.16,0,0,0,1.42-.09L6,18.15q1.66,6,3.7,12.13T14.22,42.8Q15,41,16.09,38t2.25-6.37c.78-2.28,1.55-4.59,2.32-7s1.46-4.54,2.06-6.56a7.25,7.25,0,0,0,1.93.32,4,4,0,0,0,.9-.09l.9-.23q1.61,6.18,3.74,12.2T34.63,42.8c.55-1.37,1.21-3.06,2-5s1.53-4.1,2.35-6.31,1.64-4.47,2.48-6.79,1.62-4.48,2.35-6.5a8.57,8.57,0,0,0,2.06.32,6.79,6.79,0,0,0,1.93-.32q-3.67,7.79-6.86,15.38T35,48.72a10.06,10.06,0,0,0-1.68-.13h-.9a2.21,2.21,0,0,0-.77.13Q29.93,43,27.93,37.2T23.36,25Q22.6,27,21.5,29.83T19.24,36q-1.15,3.29-2.31,6.66c-.78,2.25-1.46,4.28-2.06,6.08a12.6,12.6,0,0,0-3.61,0Z"/><path class="cls-1" d="M70.48,7A3.28,3.28,0,1,1,77,7a3.28,3.28,0,1,1-6.56,0Zm.9,23.24c0-1.94,0-4-.1-6.09s-.2-4.1-.42-6a16.74,16.74,0,0,0,2.9.32,16.84,16.84,0,0,0,2.9-.32q-.33,2.78-.42,6c-.07,2.13-.1,4.15-.1,6.09v6.69q0,2.9.1,6.08t.42,5.76c-1-.08-2-.13-2.9-.13s-1.91,0-2.9.13q.33-2.56.42-5.76t.1-6.08Z"/><path class="cls-1" d="M105.14,14c0-1.72-.06-3.41-.1-5.09s-.1-3.27-.16-4.79-.14-2.82-.23-3.9a16.74,16.74,0,0,0,2.9.32,16.84,16.84,0,0,0,2.9-.32c-.09,1.08-.17,2.37-.23,3.9s-.12,3.12-.16,4.79S110,12.25,110,14s0,3.3,0,4.76V30.38c0,1.46,0,3.05,0,4.76s.06,3.41.1,5.09.1,3.26.16,4.76.14,2.75.23,3.73c-1-.08-2-.13-2.9-.13s-1.91,0-2.9.13c.09-1,.16-2.23.23-3.73s.12-3.09.16-4.76.07-3.37.1-5.09,0-3.3,0-4.76V18.73C105.17,17.27,105.16,15.68,105.14,14Z"/><path class="cls-1" d="M138.93,14c0-1.72-.06-3.41-.1-5.09s-.1-3.27-.16-4.79-.14-2.82-.23-3.9a16.74,16.74,0,0,0,2.9.32,16.84,16.84,0,0,0,2.9-.32c-.09,1.08-.17,2.37-.23,3.9s-.12,3.12-.16,4.79-.08,3.37-.1,5.09,0,3.3,0,4.76V30.38c0,1.46,0,3.05,0,4.76s.06,3.41.1,5.09.1,3.26.16,4.76.14,2.75.23,3.73c-1-.08-2-.13-2.9-.13s-1.91,0-2.9.13c.09-1,.16-2.23.23-3.73s.12-3.09.16-4.76.07-3.37.1-5.09,0-3.3,0-4.76V18.73C139,17.27,139,15.68,138.93,14Z"/><path class="cls-1" d="M181.18,4.57a4.86,4.86,0,0,0-4.06,2,5.82,5.82,0,0,0-.93,2A10.22,10.22,0,0,0,175.9,11c0,.77.08,1.88.23,3.34s.33,2.86.54,4.19c1.12,0,2.22,0,3.32,0s2.2,0,3.31,0c0,.22-.07.43-.09.65a4.49,4.49,0,0,0,0,.64,4.58,4.58,0,0,0,0,.64c0,.22,0,.43.09.65L180,20.92c-1.1,0-2.2-.07-3.32-.07q0,7,0,13.94t.22,13.93a8.4,8.4,0,0,0-1.41-.13h-1.36c-.9,0-1.84,0-2.83.13q.45-7,.52-13.87t.06-14c-.77,0-1.54,0-2.32.07l-2.31.13c0-.22.07-.43.09-.65a4.58,4.58,0,0,0,0-.64,4.49,4.49,0,0,0,0-.64c0-.22-.05-.43-.09-.65l2.35,0c.79,0,1.55,0,2.28,0a23.23,23.23,0,0,1,.39-4.06,27.58,27.58,0,0,1,2.89-8.33A13.74,13.74,0,0,1,177.51,3,11.45,11.45,0,0,1,180.44.9a7.93,7.93,0,0,1,3.64-.9,4,4,0,0,1,1.28.19c0,.86-.09,1.72-.16,2.58s-.09,1.71-.09,2.57l-.39.2A6.49,6.49,0,0,0,181.18,4.57Z"/><path class="cls-1" d="M204.86,39c0-2.27,0-4.21.1-5.82s.1-3.21.1-4.8,0-3.13,0-4.89-.06-3.54-.1-5.34a13.7,13.7,0,0,0,2.7.32,13.51,13.51,0,0,0,2.64-.32c-.21,2.57-.37,5.4-.48,8.46s-.16,6.21-.16,9.43a17.23,17.23,0,0,0,.58,5.12,6.68,6.68,0,0,0,3.7,4.38,7.31,7.31,0,0,0,3.25.67,7.94,7.94,0,0,0,4.5-1.19,7.3,7.3,0,0,0,2.64-2.93c.3-.73.54-1.35.71-1.86a11.5,11.5,0,0,0,.42-2.06,32.51,32.51,0,0,0,.19-3.48q0-2.19,0-6V23.3c0-.94,0-1.85,0-2.7s-.05-1.68-.1-2.45l1.36.23a10.17,10.17,0,0,0,2.7,0c.43-.07.86-.14,1.29-.23q-.33,5-.39,9.69t-.06,9.88c0,1.93,0,3.82.06,5.66s.11,3.63.19,5.34c-.86-.08-1.69-.13-2.51-.13s-1.65,0-2.51.13c0-.38.08-.79.1-1.22s0-.88,0-1.35V43.38h-.13a10.9,10.9,0,0,1-4.31,4.54,11.78,11.78,0,0,1-5.73,1.45q-5,0-7.88-2.68T204.86,39Z"/><path class="cls-1" d="M258.19,14c0-1.72-.06-3.41-.1-5.09s-.09-3.27-.16-4.79-.14-2.82-.22-3.9a16.64,16.64,0,0,0,2.89.32,16.74,16.74,0,0,0,2.9-.32c-.09,1.08-.16,2.37-.23,3.9s-.11,3.12-.16,4.79S263,12.25,263,14s0,3.3,0,4.76V30.38c0,1.46,0,3.05,0,4.76s.05,3.41.09,5.09.1,3.26.16,4.76.14,2.75.23,3.73c-1-.08-1.95-.13-2.9-.13s-1.91,0-2.89.13c.08-1,.16-2.23.22-3.73s.12-3.09.16-4.76.08-3.37.1-5.09,0-3.3,0-4.76V18.73C258.22,17.27,258.21,15.68,258.19,14Z"/><path class="cls-1" d="M292,14c0-1.72-.06-3.41-.1-5.09s-.09-3.27-.16-4.79-.14-2.82-.22-3.9a16.64,16.64,0,0,0,2.89.32,16.74,16.74,0,0,0,2.9-.32c-.09,1.08-.16,2.37-.23,3.9s-.11,3.12-.16,4.79-.07,3.37-.09,5.09,0,3.3,0,4.76V30.38c0,1.46,0,3.05,0,4.76s.05,3.41.09,5.09.1,3.26.16,4.76.14,2.75.23,3.73c-1-.08-2-.13-2.9-.13s-1.91,0-2.89.13c.08-1,.16-2.23.22-3.73s.12-3.09.16-4.76.08-3.37.1-5.09,0-3.3,0-4.76V18.73C292,17.27,292,15.68,292,14Z"/><path class="cls-1" d="M333.52,48.79l-1.83-4.51c-.75-1.84-1.56-3.79-2.41-5.82l-2.64-6.25-2.54-6q-1.2-2.81-2.1-4.93t-1.35-3.15l1.55.23a11.12,11.12,0,0,0,1.41.09,11.28,11.28,0,0,0,1.42-.09l1.54-.23q2,6.18,4.44,12.23t5.15,12.49q2.71-5.67,5.18-12.1t4.41-12.62a7.22,7.22,0,0,0,4.25,0c-.3.6-.78,1.62-1.45,3.06s-1.46,3.15-2.38,5.15-1.93,4.2-3,6.63-2.21,4.91-3.35,7.46-2.26,5.09-3.38,7.6-2.14,4.89-3.09,7.14-1.77,4.29-2.48,6.11-1.23,3.28-1.57,4.35a7.65,7.65,0,0,0-4.38,0A130.45,130.45,0,0,0,333.52,48.79Z"/></g></g></svg>